# 3ds Max Wavefront OBJ Exporter v0.97b - (c)2007 guruware
# File Created: 18.12.2012 11:35:22

#
# object puff
#

v  0.0000 0.0000 0.8242
v  -0.0000 0.3441 0.4809
v  -0.1721 0.2980 0.4809
v  -0.2980 0.1721 0.4809
v  -0.3441 0.0000 0.4809
v  -0.2980 -0.1721 0.4809
v  -0.1721 -0.2980 0.4809
v  -0.0000 -0.3441 0.4809
v  0.1721 -0.2980 0.4809
v  0.2980 -0.1721 0.4809
v  0.3441 -0.0000 0.4809
v  0.2980 0.1721 0.4809
v  0.1721 0.2980 0.4809
v  -0.2980 0.5162 0.0881
v  -0.0000 0.5960 0.0881
v  -0.5162 0.2980 0.0881
v  -0.5960 0.0000 0.0881
v  -0.5162 -0.2980 0.0881
v  -0.2980 -0.5162 0.0881
v  -0.0000 -0.5960 0.0881
v  0.2980 -0.5162 0.0881
v  0.5162 -0.2980 0.0881
v  0.5960 -0.0000 0.0881
v  0.5162 0.2980 0.0881
v  0.2980 0.5162 0.0881
v  -0.3441 0.5960 -0.2753
v  -0.0000 0.6882 -0.2753
v  -0.5960 0.3441 -0.2753
v  -0.6882 0.0000 -0.2753
v  -0.5960 -0.3441 -0.2753
v  -0.3441 -0.5960 -0.2753
v  -0.0000 -0.6882 -0.2753
v  0.3441 -0.5960 -0.2753
v  0.5960 -0.3441 -0.2753
v  0.6882 -0.0000 -0.2753
v  0.5960 0.3441 -0.2753
v  0.3441 0.5960 -0.2753
v  -0.2980 0.5162 -0.6127
v  -0.0000 0.5960 -0.6127
v  -0.5162 0.2980 -0.6127
v  -0.5960 0.0000 -0.6127
v  -0.5162 -0.2980 -0.6127
v  -0.2980 -0.5162 -0.6127
v  -0.0000 -0.5960 -0.6127
v  0.2980 -0.5162 -0.6127
v  0.5162 -0.2980 -0.6127
v  0.5960 -0.0000 -0.6127
v  0.5162 0.2980 -0.6127
v  0.2980 0.5162 -0.6127
v  -0.1721 0.2980 -0.7733
v  -0.0000 0.3441 -0.7733
v  -0.2980 0.1721 -0.7733
v  -0.3441 0.0000 -0.7733
v  -0.2980 -0.1721 -0.7733
v  -0.1721 -0.2980 -0.7733
v  -0.0000 -0.3441 -0.7733
v  0.1721 -0.2980 -0.7733
v  0.2980 -0.1721 -0.7733
v  0.3441 -0.0000 -0.7733
v  0.2980 0.1721 -0.7733
v  0.1721 0.2980 -0.7733
v  0.0000 0.0000 -0.8242
# 62 vertices

vn -0.0000 -0.0000 1.0000
vn 0.0000 0.7372 0.6757
vn -0.3686 0.6384 0.6757
vn -0.6384 0.3686 0.6757
vn -0.7372 0.0000 0.6757
vn -0.6384 -0.3686 0.6757
vn -0.3686 -0.6384 0.6757
vn -0.0000 -0.7372 0.6757
vn 0.3686 -0.6384 0.6757
vn 0.6384 -0.3686 0.6757
vn 0.7372 -0.0000 0.6757
vn 0.6384 0.3686 0.6757
vn 0.3686 0.6384 0.6757
vn -0.4495 0.7785 0.4380
vn 0.0000 0.8990 0.4380
vn -0.7785 0.4495 0.4380
vn -0.8990 0.0000 0.4380
vn -0.7785 -0.4495 0.4380
vn -0.4495 -0.7785 0.4380
vn -0.0000 -0.8990 0.4380
vn 0.4495 -0.7785 0.4380
vn 0.7785 -0.4495 0.4380
vn 0.8990 -0.0000 0.4380
vn 0.7785 0.4495 0.4380
vn 0.4495 0.7785 0.4380
vn -0.5000 0.8660 -0.0100
vn 0.0000 1.0000 -0.0100
vn -0.8660 0.5000 -0.0100
vn -1.0000 0.0000 -0.0100
vn -0.8660 -0.5000 -0.0100
vn -0.5000 -0.8660 -0.0100
vn -0.0000 -1.0000 -0.0100
vn 0.5000 -0.8660 -0.0100
vn 0.8660 -0.5000 -0.0100
vn 1.0000 -0.0000 -0.0100
vn 0.8660 0.5000 -0.0100
vn 0.5000 0.8660 -0.0100
vn -0.3968 0.6873 -0.6084
vn 0.0000 0.7936 -0.6084
vn -0.6873 0.3968 -0.6084
vn -0.7936 0.0000 -0.6084
vn -0.6873 -0.3968 -0.6084
vn -0.3968 -0.6873 -0.6084
vn -0.0000 -0.7936 -0.6084
vn 0.3968 -0.6873 -0.6084
vn 0.6873 -0.3968 -0.6084
vn 0.7936 -0.0000 -0.6084
vn 0.6873 0.3968 -0.6084
vn 0.3968 0.6873 -0.6084
vn -0.1673 0.2899 -0.9423
vn 0.0000 0.3347 -0.9423
vn -0.2899 0.1673 -0.9423
vn -0.3347 0.0000 -0.9423
vn -0.2899 -0.1673 -0.9423
vn -0.1673 -0.2899 -0.9423
vn -0.0000 -0.3347 -0.9423
vn 0.1673 -0.2899 -0.9423
vn 0.2899 -0.1673 -0.9423
vn 0.3347 -0.0000 -0.9423
vn 0.2899 0.1673 -0.9423
vn 0.1673 0.2899 -0.9423
vn -0.0000 -0.0000 -1.0000
# 62 vertex normals

vt 1.0000 0.5000 0.4929
vt 1.0000 0.1505 0.5359
vt 1.1232 0.2198 0.5359
vt 1.1651 0.3532 0.5359
vt 1.1747 0.5000 0.5359
vt 1.1651 0.6468 0.5359
vt 1.1232 0.7802 0.5359
vt 1.0000 0.8495 0.5359
vt 0.8768 0.7802 0.5359
vt 0.8349 0.6468 0.5359
vt 0.8253 0.5000 0.5359
vt 0.8349 0.3532 0.5359
vt 0.8768 0.2198 0.5359
vt 0.2656 0.1673 0.8274
vt 0.1232 0.2198 0.5359
vt -0.0000 0.1505 0.5359
vt 0.5000 0.0156 0.8274
vt 0.2590 0.3336 0.8274
vt 0.1651 0.3532 0.5359
vt 0.2578 0.5000 0.8274
vt 0.1747 0.5000 0.5359
vt 0.2590 0.6664 0.8274
vt 0.1651 0.6468 0.5359
vt 0.2656 0.8327 0.8274
vt 0.1232 0.7802 0.5359
vt 0.5000 0.9844 0.8274
vt 0.0000 0.8495 0.5359
vt 0.7344 0.8327 0.8274
vt 0.7410 0.6664 0.8274
vt 0.7422 0.5000 0.8274
vt 0.7410 0.3336 0.8274
vt 0.7344 0.1673 0.8274
vt 0.3403 0.1911 1.0015
vt 0.5000 0.0982 1.0015
vt 0.3061 0.3419 1.0015
vt 0.2991 0.5000 1.0015
vt 0.3061 0.6581 1.0015
vt 0.3403 0.8089 1.0015
vt 0.5000 0.9018 1.0015
vt 0.6597 0.8089 1.0015
vt 0.6939 0.6581 1.0015
vt 0.7009 0.5000 1.0015
vt 0.6939 0.3419 1.0015
vt 0.6597 0.1911 1.0015
vt 0.3972 0.2434 0.9918
vt 0.5000 0.1865 0.9918
vt 0.3541 0.3632 0.9918
vt 0.3433 0.5000 0.9918
vt 0.3541 0.6368 0.9918
vt 0.3972 0.7566 0.9918
vt 0.5000 0.8135 0.9918
vt 0.6028 0.7566 0.9918
vt 0.6459 0.6368 0.9918
vt 0.6567 0.5000 0.9918
vt 0.6459 0.3632 0.9918
vt 0.6028 0.2434 0.9918
vt 0.4452 0.3315 0.8183
vt 0.5000 0.3019 0.8183
vt 0.4115 0.4058 0.8183
vt 0.4009 0.5000 0.8183
vt 0.4115 0.5942 0.8183
vt 0.4452 0.6685 0.8183
vt 0.5000 0.6981 0.8183
vt 0.5548 0.6685 0.8183
vt 0.5885 0.5942 0.8183
vt 0.5991 0.5000 0.8183
vt 0.5885 0.4058 0.8183
vt 0.5548 0.3315 0.8183
vt 0.5000 0.5000 0.7017
# 69 texture coords

g puff
f 1/1/1 2/2/2 3/3/3 
f 1/1/1 3/3/3 4/4/4 
f 1/1/1 4/4/4 5/5/5 
f 1/1/1 5/5/5 6/6/6 
f 1/1/1 6/6/6 7/7/7 
f 1/1/1 7/7/7 8/8/8 
f 1/1/1 8/8/8 9/9/9 
f 1/1/1 9/9/9 10/10/10 
f 1/1/1 10/10/10 11/11/11 
f 1/1/1 11/11/11 12/12/12 
f 1/1/1 12/12/12 13/13/13 
f 1/1/1 13/13/13 2/2/2 
f 14/14/14 3/15/3 2/16/2 
f 2/16/2 15/17/15 14/14/14 
f 16/18/16 4/19/4 3/15/3 
f 3/15/3 14/14/14 16/18/16 
f 17/20/17 5/21/5 4/19/4 
f 4/19/4 16/18/16 17/20/17 
f 18/22/18 6/23/6 5/21/5 
f 5/21/5 17/20/17 18/22/18 
f 19/24/19 7/25/7 6/23/6 
f 6/23/6 18/22/18 19/24/19 
f 20/26/20 8/27/8 7/25/7 
f 7/25/7 19/24/19 20/26/20 
f 21/28/21 9/9/9 8/8/8 
f 8/8/8 20/26/20 21/28/21 
f 22/29/22 10/10/10 9/9/9 
f 9/9/9 21/28/21 22/29/22 
f 23/30/23 11/11/11 10/10/10 
f 10/10/10 22/29/22 23/30/23 
f 24/31/24 12/12/12 11/11/11 
f 11/11/11 23/30/23 24/31/24 
f 25/32/25 13/13/13 12/12/12 
f 12/12/12 24/31/24 25/32/25 
f 15/17/15 2/2/2 13/13/13 
f 13/13/13 25/32/25 15/17/15 
f 26/33/26 14/14/14 15/17/15 
f 15/17/15 27/34/27 26/33/26 
f 28/35/28 16/18/16 14/14/14 
f 14/14/14 26/33/26 28/35/28 
f 29/36/29 17/20/17 16/18/16 
f 16/18/16 28/35/28 29/36/29 
f 30/37/30 18/22/18 17/20/17 
f 17/20/17 29/36/29 30/37/30 
f 31/38/31 19/24/19 18/22/18 
f 18/22/18 30/37/30 31/38/31 
f 32/39/32 20/26/20 19/24/19 
f 19/24/19 31/38/31 32/39/32 
f 33/40/33 21/28/21 20/26/20 
f 20/26/20 32/39/32 33/40/33 
f 34/41/34 22/29/22 21/28/21 
f 21/28/21 33/40/33 34/41/34 
f 35/42/35 23/30/23 22/29/22 
f 22/29/22 34/41/34 35/42/35 
f 36/43/36 24/31/24 23/30/23 
f 23/30/23 35/42/35 36/43/36 
f 37/44/37 25/32/25 24/31/24 
f 24/31/24 36/43/36 37/44/37 
f 27/34/27 15/17/15 25/32/25 
f 25/32/25 37/44/37 27/34/27 
f 38/45/38 26/33/26 27/34/27 
f 27/34/27 39/46/39 38/45/38 
f 40/47/40 28/35/28 26/33/26 
f 26/33/26 38/45/38 40/47/40 
f 41/48/41 29/36/29 28/35/28 
f 28/35/28 40/47/40 41/48/41 
f 42/49/42 30/37/30 29/36/29 
f 29/36/29 41/48/41 42/49/42 
f 43/50/43 31/38/31 30/37/30 
f 30/37/30 42/49/42 43/50/43 
f 44/51/44 32/39/32 31/38/31 
f 31/38/31 43/50/43 44/51/44 
f 45/52/45 33/40/33 32/39/32 
f 32/39/32 44/51/44 45/52/45 
f 46/53/46 34/41/34 33/40/33 
f 33/40/33 45/52/45 46/53/46 
f 47/54/47 35/42/35 34/41/34 
f 34/41/34 46/53/46 47/54/47 
f 48/55/48 36/43/36 35/42/35 
f 35/42/35 47/54/47 48/55/48 
f 49/56/49 37/44/37 36/43/36 
f 36/43/36 48/55/48 49/56/49 
f 39/46/39 27/34/27 37/44/37 
f 37/44/37 49/56/49 39/46/39 
f 50/57/50 38/45/38 39/46/39 
f 39/46/39 51/58/51 50/57/50 
f 52/59/52 40/47/40 38/45/38 
f 38/45/38 50/57/50 52/59/52 
f 53/60/53 41/48/41 40/47/40 
f 40/47/40 52/59/52 53/60/53 
f 54/61/54 42/49/42 41/48/41 
f 41/48/41 53/60/53 54/61/54 
f 55/62/55 43/50/43 42/49/42 
f 42/49/42 54/61/54 55/62/55 
f 56/63/56 44/51/44 43/50/43 
f 43/50/43 55/62/55 56/63/56 
f 57/64/57 45/52/45 44/51/44 
f 44/51/44 56/63/56 57/64/57 
f 58/65/58 46/53/46 45/52/45 
f 45/52/45 57/64/57 58/65/58 
f 59/66/59 47/54/47 46/53/46 
f 46/53/46 58/65/58 59/66/59 
f 60/67/60 48/55/48 47/54/47 
f 47/54/47 59/66/59 60/67/60 
f 61/68/61 49/56/49 48/55/48 
f 48/55/48 60/67/60 61/68/61 
f 51/58/51 39/46/39 49/56/49 
f 49/56/49 61/68/61 51/58/51 
f 62/69/62 50/57/50 51/58/51 
f 62/69/62 52/59/52 50/57/50 
f 62/69/62 53/60/53 52/59/52 
f 62/69/62 54/61/54 53/60/53 
f 62/69/62 55/62/55 54/61/54 
f 62/69/62 56/63/56 55/62/55 
f 62/69/62 57/64/57 56/63/56 
f 62/69/62 58/65/58 57/64/57 
f 62/69/62 59/66/59 58/65/58 
f 62/69/62 60/67/60 59/66/59 
f 62/69/62 61/68/61 60/67/60 
f 62/69/62 51/58/51 61/68/61 
# 120 faces

