# 3ds Max Wavefront OBJ Exporter v0.97b - (c)2007 guruware
# File Created: 03.12.2012 10:23:08

#
# object ship
#

v  0.0000 -2.5765 -0.6140
v  0.0000 -1.6831 -0.6582
v  1.0928 -1.6838 -0.5312
v  1.0968 -2.8173 -0.4883
v  0.0000 0.2603 -0.6599
v  1.0948 0.2623 -0.5310
v  0.0000 2.5894 -0.5160
v  0.9146 2.4284 -0.4792
v  0.0000 -2.6130 0.6136
v  1.0859 -2.8520 0.4881
v  1.1015 -1.6838 0.5313
v  0.0000 -1.6832 0.6584
v  1.0990 0.2627 0.5309
v  0.0000 0.2603 0.6598
v  0.9127 1.9765 0.4805
v  0.0000 2.0278 0.5970
v  1.0874 -2.9153 -0.1767
v  0.0000 -2.6756 -0.2201
v  1.0952 -2.9162 0.1768
v  0.0000 -2.6747 0.2200
v  1.0814 -2.1475 -0.3958
v  1.0827 0.5913 -0.4269
v  0.9417 2.2779 -0.1596
v  1.0901 -2.4645 0.3366
v  2.9503 -1.7801 -0.3580
v  2.9497 1.8824 -0.3815
v  2.9496 1.8939 0.2316
v  2.9490 -2.1068 0.2139
v  0.9315 2.1269 0.1610
v  1.0881 0.6058 0.3695
v  0.0000 2.4281 -0.1987
v  0.0000 2.2306 0.2096
v  1.9743 1.8827 -0.3870
v  1.9869 -1.8052 -0.3555
v  1.9751 1.8934 0.2316
v  1.9613 -2.0816 0.2170
v  2.1628 2.0976 -0.5473
v  2.1580 -1.9268 -0.5219
v  2.1645 2.1144 0.3970
v  2.1693 -2.4346 0.3774
v  2.7604 2.0974 -0.5474
v  2.7598 -1.9260 -0.5218
v  2.7605 2.1146 0.3970
v  2.7610 -2.4355 0.3773
v  -1.0968 -2.8173 -0.4883
v  -1.0928 -1.6838 -0.5312
v  -1.0948 0.2623 -0.5310
v  -0.9146 2.4284 -0.4792
v  -1.1015 -1.6838 0.5313
v  -1.0859 -2.8520 0.4881
v  -1.0990 0.2627 0.5309
v  -0.9127 1.9765 0.4805
v  -1.0874 -2.9153 -0.1767
v  -1.0952 -2.9162 0.1768
v  -1.0814 -2.1475 -0.3958
v  -1.0827 0.5913 -0.4269
v  -0.9417 2.2779 -0.1596
v  -1.0901 -2.4645 0.3366
v  -2.9503 -1.7801 -0.3580
v  -2.9490 -2.1068 0.2139
v  -2.9496 1.8939 0.2316
v  -2.9497 1.8824 -0.3815
v  -1.0881 0.6058 0.3695
v  -0.9315 2.1269 0.1610
v  -1.9869 -1.8052 -0.3555
v  -1.9743 1.8827 -0.3870
v  -1.9751 1.8934 0.2316
v  -1.9613 -2.0816 0.2170
v  -2.1580 -1.9268 -0.5219
v  -2.1628 2.0976 -0.5473
v  -2.1645 2.1144 0.3970
v  -2.1693 -2.4346 0.3774
v  -2.7598 -1.9260 -0.5218
v  -2.7604 2.0974 -0.5474
v  -2.7605 2.1146 0.3970
v  -2.7610 -2.4355 0.3773
# 76 vertices

vn -0.0000 -0.0815 -0.9967
vn -0.0000 -0.0453 -0.9990
vn 0.1531 -0.0378 -0.9875
vn 0.1442 -0.0679 -0.9872
vn 0.0000 0.0383 -0.9993
vn 0.1590 0.0290 -0.9869
vn 0.0000 0.1126 -0.9936
vn 0.1007 0.0946 -0.9904
vn 0.0000 -0.0807 0.9967
vn 0.1451 -0.0695 0.9870
vn 0.1529 -0.0375 0.9875
vn 0.0000 -0.0440 0.9990
vn 0.1583 0.0362 0.9867
vn -0.0000 0.0353 0.9994
vn 0.1677 0.0693 0.9834
vn 0.0000 0.0650 0.9979
vn -0.0000 -0.9895 -0.1448
vn -0.1336 -0.9763 -0.1704
vn -0.1522 -0.9854 -0.0763
vn -0.0000 -0.9975 -0.0704
vn -0.1600 -0.9858 0.0520
vn -0.0000 -0.9989 0.0477
vn -0.1543 -0.9829 0.1009
vn 0.0000 -0.9964 0.0852
vn 0.9991 0.0216 0.0356
vn 0.9979 0.0020 0.0654
vn 0.9986 0.0109 0.0527
vn 0.9999 0.0149 0.0019
vn 0.9982 0.0202 0.0569
vn 0.9836 0.1378 -0.1164
vn 0.9932 0.1118 -0.0326
vn 0.9944 0.1052 0.0060
vn 1.0000 -0.0033 -0.0032
vn 0.9998 0.0183 -0.0050
vn 1.0000 -0.0001 0.0013
vn 1.0000 0.0002 0.0001
vn 1.0000 0.0001 0.0004
vn 1.0000 -0.0002 0.0016
vn 0.9908 0.1277 0.0452
vn 0.9907 0.1234 0.0580
vn 0.9999 -0.0063 0.0114
vn 0.9991 -0.0006 -0.0416
vn 0.9994 0.0336 -0.0101
vn 0.9840 0.1554 0.0869
vn 0.1042 0.9631 0.2482
vn 0.0000 0.9636 0.2673
vn -0.0000 0.9662 0.2578
vn 0.1001 0.9639 0.2467
vn -0.0000 0.9644 0.2645
vn 0.0942 0.9626 0.2541
vn 0.0000 0.9634 0.2680
vn 0.0846 0.9642 0.2513
vn 0.0836 -0.0208 -0.9963
vn 0.0653 -0.0153 -0.9977
vn -0.7361 0.6768 -0.0030
vn -0.7349 0.6781 -0.0056
vn 0.1912 -0.0191 0.9814
vn 0.2165 -0.0076 0.9762
vn 0.2780 -0.9344 -0.2229
vn 0.2629 -0.9351 -0.2376
vn -0.7543 -0.0137 -0.6563
vn -0.8015 -0.0056 -0.5979
vn -0.6535 0.7569 -0.0065
vn -0.6534 0.7570 -0.0065
vn -0.7276 -0.0012 0.6860
vn -0.7658 -0.0062 0.6431
vn -0.6634 -0.7180 -0.2106
vn -0.6747 -0.7072 -0.2116
vn -0.0000 -0.0116 -0.9999
vn 0.0002 -0.0116 -0.9999
vn -0.0002 1.0000 -0.0097
vn 0.0002 1.0000 -0.0099
vn 0.0001 -0.0079 1.0000
vn 0.0000 -0.0079 1.0000
vn 0.0011 -0.9557 -0.2943
vn -0.0011 -0.9554 -0.2953
vn 0.7661 -0.0076 -0.6426
vn 0.7649 -0.0074 -0.6441
vn 0.6526 0.7576 -0.0076
vn 0.6530 0.7573 -0.0077
vn 0.7691 -0.0049 0.6392
vn 0.7664 -0.0054 0.6424
vn 0.6677 -0.7110 -0.2204
vn -0.1442 -0.0679 -0.9872
vn -0.1531 -0.0378 -0.9875
vn -0.1590 0.0290 -0.9869
vn -0.1007 0.0946 -0.9904
vn -0.1529 -0.0375 0.9875
vn -0.1451 -0.0695 0.9870
vn -0.1583 0.0362 0.9867
vn -0.1677 0.0693 0.9834
vn 0.1522 -0.9854 -0.0763
vn 0.1336 -0.9763 -0.1704
vn 0.1600 -0.9858 0.0520
vn 0.1543 -0.9829 0.1009
vn -0.9991 0.0216 0.0356
vn -0.9999 0.0149 0.0019
vn -0.9986 0.0109 0.0527
vn -0.9979 0.0020 0.0654
vn -0.9836 0.1378 -0.1164
vn -0.9982 0.0202 0.0569
vn -0.9944 0.1052 0.0060
vn -0.9932 0.1118 -0.0326
vn -0.9998 0.0183 -0.0050
vn -1.0000 -0.0033 -0.0032
vn -1.0000 -0.0001 0.0013
vn -1.0000 -0.0002 0.0016
vn -1.0000 0.0001 0.0004
vn -1.0000 0.0002 0.0001
vn -0.9907 0.1234 0.0580
vn -0.9908 0.1277 0.0452
vn -0.9999 -0.0063 0.0114
vn -0.9991 -0.0006 -0.0416
vn -0.9994 0.0336 -0.0101
vn -0.9840 0.1554 0.0869
vn -0.1042 0.9631 0.2482
vn -0.1001 0.9639 0.2467
vn -0.0942 0.9626 0.2541
vn -0.0846 0.9642 0.2513
vn -0.0653 -0.0153 -0.9977
vn -0.0836 -0.0208 -0.9963
vn 0.7349 0.6781 -0.0056
vn 0.7361 0.6768 -0.0030
vn -0.2165 -0.0076 0.9762
vn -0.1912 -0.0191 0.9814
vn -0.2629 -0.9351 -0.2376
vn -0.2780 -0.9344 -0.2229
vn 0.8015 -0.0056 -0.5979
vn 0.7543 -0.0137 -0.6563
vn 0.6534 0.7570 -0.0065
vn 0.6535 0.7569 -0.0065
vn 0.7658 -0.0062 0.6431
vn 0.7276 -0.0012 0.6860
vn 0.6747 -0.7072 -0.2116
vn 0.6634 -0.7180 -0.2106
vn -0.0002 -0.0116 -0.9999
vn 0.0000 -0.0116 -0.9999
vn -0.0002 1.0000 -0.0099
vn 0.0002 1.0000 -0.0097
vn -0.0000 -0.0079 1.0000
vn -0.0001 -0.0079 1.0000
vn 0.0011 -0.9554 -0.2953
vn -0.0011 -0.9557 -0.2943
vn -0.7649 -0.0074 -0.6441
vn -0.7661 -0.0076 -0.6426
vn -0.6530 0.7573 -0.0077
vn -0.6526 0.7576 -0.0076
vn -0.7664 -0.0054 0.6424
vn -0.7691 -0.0049 0.6392
vn -0.6677 -0.7110 -0.2204
# 150 vertex normals

vt 0.3315 0.3276 0.0000
vt 0.2733 0.3276 0.0000
vt 0.2733 0.2325 0.0000
vt 0.3472 0.2321 0.0000
vt 0.1466 0.3276 0.0000
vt 0.1464 0.2323 0.0000
vt 0.0100 0.3276 0.0000
vt 0.0254 0.2480 0.0000
vt 0.0256 0.1059 0.0000
vt 0.0100 0.0114 0.0000
vt 0.0862 0.0100 0.0000
vt 0.0862 0.1059 0.0000
vt 0.2130 0.0102 0.0000
vt 0.2129 0.1059 0.0000
vt 0.3341 0.0264 0.0000
vt 0.3495 0.1059 0.0000
vt 0.8266 0.1567 0.0000
vt 0.7310 0.1417 0.0000
vt 0.7319 0.1045 0.0000
vt 0.8266 0.1097 0.0000
vt 0.7312 0.0622 0.0000
vt 0.8266 0.0571 0.0000
vt 0.7320 0.0250 0.0000
vt 0.8266 0.0100 0.0000
vt 0.3322 0.5753 0.0000
vt 0.2583 0.5804 0.0000
vt 0.2885 0.5643 0.0000
vt 0.3386 0.5381 0.0000
vt 0.1314 0.5804 0.0000
vt 0.1100 0.5680 0.0000
vt 0.0103 0.5803 0.0000
vt 0.0100 0.5381 0.0000
vt 0.3092 0.4767 0.0000
vt 0.3386 0.4958 0.0000
vt 0.6314 0.3224 0.0000
vt 0.3926 0.3252 0.0000
vt 0.3919 0.2519 0.0000
vt 0.6527 0.2540 0.0000
vt 0.0101 0.4958 0.0000
vt 0.1090 0.4728 0.0000
vt 0.3344 0.4586 0.0000
vt 0.2583 0.4534 0.0000
vt 0.1314 0.4535 0.0000
vt 0.0104 0.4535 0.0000
vt 0.9609 0.9531 0.0000
vt 0.8594 0.9727 0.0000
vt 0.8594 0.8984 0.0000
vt 0.9609 0.8945 0.0000
vt 0.8594 0.8320 0.0000
vt 0.9609 0.8398 0.0000
vt 0.8594 0.7656 0.0000
vt 0.9609 0.7813 0.0000
vt 0.9414 0.4219 0.0000
vt 0.7617 0.4219 0.0000
vt 0.6797 0.3438 0.0000
vt 0.9180 0.3438 0.0000
vt 0.1875 0.8945 0.0000
vt 0.2813 0.8945 0.0000
vt 0.2656 0.9805 0.0000
vt 0.1914 0.9766 0.0000
vt 0.2102 0.8160 0.0000
vt 0.0100 0.8158 0.0000
vt 0.0350 0.7399 0.0000
vt 0.2941 0.7387 0.0000
vt 0.1719 0.8750 0.0000
vt 0.1719 0.9609 0.0000
vt 0.0938 0.9570 0.0000
vt 0.0977 0.8906 0.0000
vt 0.2813 0.8281 0.0000
vt 0.5195 0.8320 0.0000
vt 0.5352 0.8516 0.0000
vt 0.2734 0.8477 0.0000
vt 0.4453 0.9063 0.0000
vt 0.5156 0.9063 0.0000
vt 0.5391 0.9219 0.0000
vt 0.4258 0.9219 0.0000
vt 0.9297 0.6641 0.0000
vt 0.6719 0.6680 0.0000
vt 0.6484 0.6484 0.0000
vt 0.9453 0.6445 0.0000
vt 0.0781 0.9766 0.0000
vt 0.0781 0.8711 0.0000
vt 0.9375 0.6328 0.0000
vt 0.6758 0.6328 0.0000
vt 0.6758 0.5781 0.0000
vt 0.9375 0.5781 0.0000
vt 0.5391 0.9727 0.0000
vt 0.4258 0.9727 0.0000
vt 0.9570 0.5703 0.0000
vt 0.6602 0.5703 0.0000
vt 0.6602 0.5195 0.0000
vt 0.9570 0.5195 0.0000
vt 0.0273 0.9766 0.0000
vt 0.0273 0.8711 0.0000
vt 0.6409 0.3420 0.0000
vt 0.3786 0.3450 0.0000
vt 0.5156 0.9883 0.0000
vt 0.4453 0.9883 0.0000
vt 0.3775 0.2321 0.0000
vt 0.6741 0.2345 0.0000
vt 0.0117 0.9570 0.0000
vt 0.0117 0.8906 0.0000
vt 0.3472 0.4232 0.0000
vt 0.2733 0.4228 0.0000
vt 0.1464 0.4230 0.0000
vt 0.0254 0.4073 0.0000
vt 0.0862 0.2019 0.0000
vt 0.0100 0.2005 0.0000
vt 0.2130 0.2016 0.0000
vt 0.3341 0.1854 0.0000
vt 0.9213 0.1045 0.0000
vt 0.9221 0.1417 0.0000
vt 0.9219 0.0622 0.0000
vt 0.9211 0.0250 0.0000
vt 0.3862 0.1319 0.0000
vt 0.3798 0.0946 0.0000
vt 0.4298 0.1208 0.0000
vt 0.4601 0.1370 0.0000
vt 0.6084 0.1245 0.0000
vt 0.5869 0.1370 0.0000
vt 0.7083 0.0947 0.0000
vt 0.7080 0.1369 0.0000
vt 0.3797 0.0524 0.0000
vt 0.4092 0.0333 0.0000
vt 0.0527 0.6934 0.0000
vt 0.0314 0.6250 0.0000
vt 0.2922 0.6229 0.0000
vt 0.2915 0.6962 0.0000
vt 0.6093 0.0293 0.0000
vt 0.7082 0.0523 0.0000
vt 0.3839 0.0152 0.0000
vt 0.4601 0.0100 0.0000
vt 0.5870 0.0100 0.0000
vt 0.7080 0.0101 0.0000
vt 0.7500 0.9531 0.0000
vt 0.7500 0.8945 0.0000
vt 0.7500 0.8398 0.0000
vt 0.7500 0.7813 0.0000
vt 0.5921 0.6031 0.0000
vt 0.5697 0.6820 0.0000
vt 0.3293 0.6809 0.0000
vt 0.4135 0.6032 0.0000
vt 0.8828 0.2422 0.0000
vt 0.8867 0.1602 0.0000
vt 0.9609 0.1602 0.0000
vt 0.9766 0.2422 0.0000
vt 0.5615 0.4534 0.0000
vt 0.6454 0.5307 0.0000
vt 0.3863 0.5295 0.0000
vt 0.3613 0.4536 0.0000
vt 0.3301 0.7171 0.0000
vt 0.4060 0.7314 0.0000
vt 0.4082 0.7999 0.0000
vt 0.3293 0.8047 0.0000
vt 0.5156 0.8594 0.0000
vt 0.5234 0.8789 0.0000
vt 0.2617 0.8828 0.0000
vt 0.2773 0.8633 0.0000
vt 0.3125 0.9844 0.0000
vt 0.2930 0.9688 0.0000
vt 0.4063 0.9688 0.0000
vt 0.3867 0.9844 0.0000
vt 0.3941 0.1795 0.0000
vt 0.3797 0.1597 0.0000
vt 0.6763 0.1621 0.0000
vt 0.6533 0.1812 0.0000
vt 0.4241 0.7123 0.0000
vt 0.4231 0.8198 0.0000
vt 0.6398 0.3677 0.0000
vt 0.6398 0.4201 0.0000
vt 0.3775 0.4202 0.0000
vt 0.3775 0.3681 0.0000
vt 0.2930 0.9180 0.0000
vt 0.4063 0.9180 0.0000
vt 0.9570 0.4453 0.0000
vt 0.9570 0.4961 0.0000
vt 0.6602 0.4961 0.0000
vt 0.6602 0.4453 0.0000
vt 0.4756 0.7123 0.0000
vt 0.4755 0.8198 0.0000
vt 0.0432 0.7130 0.0000
vt 0.3055 0.7160 0.0000
vt 0.3125 0.8984 0.0000
vt 0.3867 0.9023 0.0000
vt 0.3066 0.6031 0.0000
vt 0.0100 0.6055 0.0000
vt 0.4920 0.7318 0.0000
vt 0.4921 0.8002 0.0000
# 188 texture coords

g ship
f 1/1/1 2/2/2 3/3/3 
f 3/3/3 4/4/4 1/1/1 
f 2/2/2 5/5/5 6/6/6 
f 6/6/6 3/3/3 2/2/2 
f 5/5/5 7/7/7 8/8/8 
f 8/8/8 6/6/6 5/5/5 
f 9/9/9 10/10/10 11/11/11 
f 11/11/11 12/12/12 9/9/9 
f 12/12/12 11/11/11 13/13/13 
f 13/13/13 14/14/14 12/12/12 
f 14/14/14 13/13/13 15/15/15 
f 15/15/15 16/16/16 14/14/14 
f 1/17/17 4/18/18 17/19/19 
f 17/19/19 18/20/20 1/17/17 
f 18/20/20 17/19/19 19/21/21 
f 19/21/21 20/22/22 18/20/20 
f 20/22/22 19/21/21 10/23/23 
f 10/23/23 9/24/24 20/22/22 
f 4/25/25 3/26/26 21/27/27 
f 21/27/27 17/28/28 4/25/25 
f 3/26/26 6/29/29 22/30/30 
f 22/30/30 21/27/27 3/26/26 
f 6/29/29 8/31/31 23/32/32 
f 23/32/32 22/30/30 6/29/29 
f 17/28/28 21/27/27 24/33/33 
f 24/33/33 19/34/34 17/28/28 
f 25/35/35 26/36/36 27/37/37 
f 27/37/37 28/38/38 25/35/35 
f 22/30/30 23/32/32 29/39/39 
f 29/39/39 30/40/40 22/30/30 
f 10/41/41 19/34/34 24/33/33 
f 24/33/33 11/42/42 10/41/41 
f 24/33/33 30/40/40 13/43/43 
f 13/43/43 11/42/42 24/33/33 
f 30/40/40 29/39/39 15/44/44 
f 15/44/44 13/43/43 30/40/40 
f 8/45/45 7/46/46 31/47/47 
f 31/47/47 23/48/48 8/45/45 
f 23/48/48 31/47/47 32/49/49 
f 32/49/49 29/50/50 23/48/48 
f 29/50/50 32/49/49 16/51/51 
f 16/51/51 15/52/52 29/50/50 
f 21/53/53 22/54/53 33/55/53 
f 33/55/54 34/56/54 21/53/54 
f 22/57/55 30/58/55 35/59/55 
f 35/59/56 33/60/56 22/57/56 
f 30/61/57 24/62/57 36/63/57 
f 36/63/58 35/64/58 30/61/58 
f 24/65/59 21/66/59 34/67/59 
f 34/67/60 36/68/60 24/65/60 
f 34/69/61 33/70/61 37/71/61 
f 37/71/62 38/72/62 34/69/62 
f 33/73/63 35/74/63 39/75/63 
f 39/75/64 37/76/64 33/73/64 
f 35/77/65 36/78/65 40/79/65 
f 40/79/66 39/80/66 35/77/66 
f 36/68/67 34/67/67 38/81/67 
f 38/81/68 40/82/68 36/68/68 
f 38/83/69 37/84/69 41/85/69 
f 41/85/70 42/86/70 38/83/70 
f 37/76/71 39/75/71 43/87/71 
f 43/87/72 41/88/72 37/76/72 
f 39/89/73 40/90/73 44/91/73 
f 44/91/74 43/92/74 39/89/74 
f 40/82/75 38/81/75 42/93/75 
f 42/93/76 44/94/76 40/82/76 
f 42/95/77 41/96/77 26/36/77 
f 26/36/78 25/35/78 42/95/78 
f 41/88/79 43/87/79 27/97/79 
f 27/97/80 26/98/80 41/88/80 
f 43/99/81 44/100/81 28/38/81 
f 28/38/82 27/37/82 43/99/82 
f 44/94/83 42/93/83 25/101/83 
f 25/101/83 28/102/83 44/94/83 
f 1/1/1 45/103/84 46/104/85 
f 46/104/85 2/2/2 1/1/1 
f 2/2/2 46/104/85 47/105/86 
f 47/105/86 5/5/5 2/2/2 
f 5/5/5 47/105/86 48/106/87 
f 48/106/87 7/7/7 5/5/5 
f 9/9/9 12/12/12 49/107/88 
f 49/107/88 50/108/89 9/9/9 
f 12/12/12 14/14/14 51/109/90 
f 51/109/90 49/107/88 12/12/12 
f 14/14/14 16/16/16 52/110/91 
f 52/110/91 51/109/90 14/14/14 
f 1/17/17 18/20/20 53/111/92 
f 53/111/92 45/112/93 1/17/17 
f 18/20/20 20/22/22 54/113/94 
f 54/113/94 53/111/92 18/20/20 
f 20/22/22 9/24/24 50/114/95 
f 50/114/95 54/113/94 20/22/22 
f 45/115/96 53/116/97 55/117/98 
f 55/117/98 46/118/99 45/115/96 
f 46/118/99 55/117/98 56/119/100 
f 56/119/100 47/120/101 46/118/99 
f 47/120/101 56/119/100 57/121/102 
f 57/121/102 48/122/103 47/120/101 
f 53/116/97 54/123/104 58/124/105 
f 58/124/105 55/117/98 53/116/97 
f 59/125/106 60/126/107 61/127/108 
f 61/127/108 62/128/109 59/125/106 
f 56/119/100 63/129/110 64/130/111 
f 64/130/111 57/121/102 56/119/100 
f 50/131/112 49/132/113 58/124/105 
f 58/124/105 54/123/104 50/131/112 
f 58/124/105 49/132/113 51/133/114 
f 51/133/114 63/129/110 58/124/105 
f 63/129/110 51/133/114 52/134/115 
f 52/134/115 64/130/111 63/129/110 
f 48/135/116 57/136/117 31/47/47 
f 31/47/47 7/46/46 48/135/116 
f 57/136/117 64/137/118 32/49/49 
f 32/49/49 31/47/47 57/136/117 
f 64/137/118 52/138/119 16/51/51 
f 16/51/51 32/49/49 64/137/118 
f 55/139/120 65/140/120 66/141/120 
f 66/141/121 56/142/121 55/139/121 
f 56/143/122 66/144/122 67/145/122 
f 67/145/123 63/146/123 56/143/123 
f 63/147/124 67/148/124 68/149/124 
f 68/149/125 58/150/125 63/147/125 
f 58/151/126 68/152/126 65/153/126 
f 65/153/127 55/154/127 58/151/127 
f 65/155/128 69/156/128 70/157/128 
f 70/157/129 66/158/129 65/155/129 
f 66/159/130 70/160/130 71/161/130 
f 71/161/131 67/162/131 66/159/131 
f 67/163/132 71/164/132 72/165/132 
f 72/165/133 68/166/133 67/163/133 
f 68/152/134 72/167/134 69/168/134 
f 69/168/135 65/153/135 68/152/135 
f 69/169/136 73/170/136 74/171/136 
f 74/171/137 70/172/137 69/169/137 
f 70/160/138 74/173/138 75/174/138 
f 75/174/139 71/161/139 70/160/139 
f 71/175/140 75/176/140 76/177/140 
f 76/177/141 72/178/141 71/175/141 
f 72/167/142 76/179/142 73/180/142 
f 73/180/143 69/168/143 72/167/143 
f 73/181/144 59/125/144 62/128/144 
f 62/128/145 74/182/145 73/181/145 
f 74/173/146 62/183/146 61/184/146 
f 61/184/147 75/174/147 74/173/147 
f 75/185/148 61/127/148 60/126/148 
f 60/126/149 76/186/149 75/185/149 
f 76/179/150 60/187/150 59/188/150 
f 59/188/150 73/180/150 76/179/150 
# 148 faces

